<?xml version="1.0" encoding="iso-8859-1"?>
<!-- Generator: Adobe Illustrator 19.0.0, SVG Export Plug-In . SVG Version: 6.00 Build 0)  -->
<svg version="1.1" id="Layer_1" xmlns="http://www.w3.org/2000/svg" xmlns:xlink="http://www.w3.org/1999/xlink" x="0px" y="0px"
	 viewBox="0 0 511.999 511.999" style="enable-background:new 0 0 511.999 511.999;" xml:space="preserve">
<path style="fill:#E7E4CD;" d="M185.422,390.916c-31.421,18.354-55.047,48.589-64.735,84.541
	c39.737,23.222,85.967,36.542,135.313,36.542s95.576-13.32,135.313-36.542c-9.688-35.952-33.314-66.187-64.735-84.541
	L185.422,390.916L185.422,390.916z"/>
<path style="fill:#D5D2BD;" d="M391.312,475.458c-9.688-35.952-33.314-66.187-64.735-84.541H185.422
	c-12.589,7.354-23.923,16.619-33.613,27.39c10.781,8.551,22.251,15.875,34.231,21.703c22.534,10.962,46.071,16.52,69.961,16.52
	c11.999,0,23.865-1.383,35.497-4.104c11.704-2.737,22.894,6.174,22.894,18.193v35.011
	C341.848,499.537,367.723,489.242,391.312,475.458z"/>
<g>
	<path style="fill:#ECCE93;" d="M136.011,439.605c-6.679,11.047-11.884,23.086-15.324,35.852
		c17.057,9.968,35.313,18.104,54.497,24.154l6.076-14.787C169.866,466.492,154.347,450.996,136.011,439.605z"/>
	<path style="fill:#ECCE93;" d="M330.739,484.824l6.076,14.787c19.182-6.049,37.439-14.185,54.497-24.154
		c-3.44-12.765-8.645-24.804-15.324-35.852C357.653,450.996,342.134,466.492,330.739,484.824z"/>
</g>
<path style="fill:#C1BDAB;" d="M330.739,501.45c9.688-2.803,19.151-6.139,28.355-9.97c-4.076-20.586-14.161-39.012-28.355-53.368
	V501.45z"/>
<path style="fill:#D5D2BD;" d="M181.26,501.45v-63.338c-14.194,14.357-24.279,32.781-28.355,53.368
	C162.11,495.311,171.572,498.647,181.26,501.45z"/>
<g>
	<polygon style="fill:#E1B872;" points="209.287,409.498 255.87,455.951 302.712,409.239 	"/>
	<path style="fill:#E1B872;" d="M437.009,190.853c-8.567,0-16.647,2.064-23.793,5.7C395.753,130.499,343.612,70.738,279.433,58.75
		c-7.654-1.429-15.475-2.194-23.432-2.194c-74.687,0-137.674,66.06-157.218,139.997l0.013,93.699
		c14.154,53.538,51.078,102.944,98.74,126.13c18.156,8.832,37.864,13.872,58.466,13.872c74.687,0,137.674-66.06,157.218-139.997
		c7.145,3.635,15.225,5.699,23.792,5.699c29.023,0,52.551-23.528,52.551-52.551C489.561,214.381,466.033,190.853,437.009,190.853z"
		/>
</g>
<path style="fill:#ECCE93;" d="M362.439,238.295c-33.692-14.021-69.441-21.142-106.253-21.166l-0.291,0.001
	c-36.838,0.013-72.618,7.134-106.337,21.166c-0.214,0.089-0.439,0.176-0.675,0.262c-9.878,3.592-20.74-1.95-24.091-11.913
	c-4.405-13.102-13.834-23.891-26.001-30.086l-0.013-0.007c-8.166-4.155-17.554-6.256-27.495-5.57
	c-26.615,1.836-47.86,23.835-48.813,50.497c-1.069,29.902,22.854,54.478,52.516,54.478c8.572,0,16.655-2.065,23.803-5.705
	c14.154,53.538,51.077,102.944,98.74,126.13c7.654,1.429,15.475,2.194,23.432,2.194c77.371,0,142.179-70.893,159.146-147.995
	c2.983-13.552-4.609-27.052-17.49-32.21C362.561,238.345,362.5,238.32,362.439,238.295z"/>
<circle style="fill:#E1B872;" cx="74.985" cy="243.406" r="17.517"/>
<circle style="fill:#D5A150;" cx="437.005" cy="243.406" r="17.517"/>
<path style="opacity:0.1;fill:#463540;enable-background:new    ;" d="M98.794,290.251c14.154,53.538,51.078,102.944,98.74,126.13
	c18.156,8.832,37.864,13.872,58.466,13.872c74.687,0,137.674-66.06,157.218-139.997c0.05,0.026,0.104,0.048,0.155,0.074
	c-17.148-8.651-28.915-26.403-28.915-46.92l0,0v-0.006c0.165-3.136-1.433-6.175-4.225-7.612c-6.655-3.424-13.292,1.318-13.292,7.612
	c0,0.002,0,0.004,0,0.006l0,0c0,19.352-15.688,35.028-35.04,35.028h-23.35c-9.674,0-17.517-7.843-17.517-17.517v-0.006
	c0-9.674-7.842-17.507-17.517-17.507h-35.034c-9.674,0-17.517,7.832-17.517,17.507v0.006c0,9.674-7.843,17.517-17.517,17.517h-23.35
	c-19.352,0-35.04-15.677-35.04-35.028l0,0v-0.006c0.165-3.136-1.433-6.175-4.225-7.612c-6.655-3.424-13.292,1.318-13.292,7.612
	c0,0.002,0,0.004,0,0.006l0,0c0,20.514-11.762,38.261-28.903,46.914C98.689,290.298,98.743,290.277,98.794,290.251z"/>
<path style="fill:#E7E4CD;" d="M232.957,8.759c-41.076,0-81.351,12.01-115.376,35.021c-5.741,3.882-11.197,7.824-16.343,11.931
	c-16.623,13.266-26.248,33.418-26.248,54.685v54.18v26.276c15.536,0,29.492,6.746,39.107,17.466
	c6.386,7.119,16.537,9.393,25.366,5.718c35.853-14.921,75.179-23.169,116.431-23.183c0.065-0.712,0.104-1.433,0.104-2.162
	l46.712-90.68L255.999,8.757L232.957,8.759z"/>
<path style="fill:#C1BDAB;" d="M410.762,55.711c-5.147-4.107-10.604-8.049-16.343-11.931
	C360.392,20.768,320.118,8.759,279.041,8.759h-23.042v179.934c0,0.729-0.039,1.449-0.104,2.162c0.035,0,0.069-0.001,0.104-0.001
	c41.291,0,80.652,8.251,116.535,23.184c8.829,3.674,18.98,1.4,25.366-5.719c9.617-10.72,23.571-17.466,39.107-17.466v-80.457
	C437.009,89.129,427.384,68.978,410.762,55.711z"/>
<path style="fill:#AB5034;" d="M320.229,469.375h-2.92v-2.92c0-4.837-3.921-8.759-8.759-8.759c-4.837,0-8.759,3.922-8.759,8.759
	v2.92h-2.919c-4.837,0-8.759,3.922-8.759,8.759c0,4.837,3.921,8.759,8.759,8.759h2.919v2.92c0,4.837,3.922,8.759,8.759,8.759
	c4.837,0,8.759-3.922,8.759-8.759v-2.92h2.92c4.837,0,8.759-3.921,8.759-8.759C328.987,473.297,325.066,469.375,320.229,469.375z"/>
<path d="M262.192,273.996c-1.654,1.655-3.854,2.566-6.193,2.566s-4.539-0.911-6.193-2.566c-3.421-3.419-8.966-3.421-12.386,0
	c-3.422,3.421-3.422,8.966-0.001,12.387c4.963,4.963,11.561,7.696,18.58,7.696c7.019,0,13.617-2.734,18.58-7.696
	c3.421-3.421,3.421-8.966-0.001-12.387C271.16,270.576,265.614,270.577,262.192,273.996z"/>
<circle cx="197.604" cy="243.406" r="17.517"/>
<circle cx="314.385" cy="243.406" r="17.517"/>
<path d="M445.768,182.73v-72.334c0-24.12-10.768-46.546-29.544-61.531c-5.029-4.013-10.556-8.05-16.899-12.34
	C363.993,12.63,322.401,0,279.043,0h-46.085c-43.358,0-84.951,12.63-120.283,36.525c-6.344,4.291-11.871,8.328-16.9,12.34
	C76.999,63.85,66.231,86.276,66.231,110.396v46.007c0,4.837,3.92,8.759,8.759,8.759s8.759-3.921,8.759-8.759v-46.007
	c0-18.761,8.366-36.198,22.952-47.839c4.665-3.723,9.831-7.493,15.788-11.523c32.423-21.927,70.623-33.517,110.47-33.517h14.283
	v7.507c0,4.837,3.92,8.759,8.759,8.759s8.759-3.921,8.759-8.759v-7.507h14.283c39.847,0,78.047,11.59,110.469,33.518
	c5.958,4.03,11.122,7.799,15.788,11.523c14.587,11.641,22.953,29.077,22.953,47.839v72.33c-14.12,2.046-27.224,8.991-36.869,19.744
	c-3.876,4.323-10.097,5.72-15.482,3.48c-35.331-14.704-72.65-22.662-111.142-23.722v-33.417c0-4.837-3.92-8.759-8.759-8.759
	c-4.838,0-8.759,3.921-8.759,8.759v33.413c-38.44,1.051-75.789,9.013-111.142,23.726c-5.386,2.24-11.606,0.841-15.482-3.479
	c-11.616-12.95-28.247-20.377-45.627-20.377c-33.806,0-61.31,27.503-61.31,61.31s27.504,61.31,61.31,61.31
	c6.219,0,12.271-0.911,18.089-2.715c12.192,38.705,35.295,73.565,64.415,98.361c-22.024,19.416-37.628,44.479-45.264,72.82
	c-1.258,4.671,1.508,9.477,6.179,10.736c0.763,0.206,1.53,0.304,2.284,0.304c3.862,0,7.398-2.575,8.451-6.482
	c2.155-7.996,5.041-15.689,8.59-23.028c4.837,3.738,9.409,7.815,13.693,12.2c-3.151,7.31-5.549,14.965-7.115,22.877
	c-0.939,4.745,2.146,9.353,6.891,10.292c0.575,0.113,1.146,0.168,1.71,0.168c4.097,0,7.758-2.889,8.583-7.061
	c3.701-18.704,12.821-35.756,26.378-49.312c3.421-3.42,3.421-8.966-0.001-12.386c-3.419-3.422-8.965-3.421-12.386,0
	c-5.897,5.897-11.079,12.361-15.498,19.272c-4.274-4.062-8.782-7.859-13.5-11.384c6.929-10.425,15.376-19.87,25.187-28.089
	c7.086,4.926,14.443,9.283,22.024,12.97c9.277,4.514,18.855,8.038,28.504,10.492l27.48,27.404c1.71,1.704,3.947,2.556,6.185,2.556
	s4.475-0.853,6.185-2.556l27.38-27.306c17.864-4.491,35.049-12.591,50.891-23.559c8.395,7.035,15.79,14.969,22.093,23.647
	c-4.859,3.254-9.521,6.8-13.968,10.605c-3.576-4.961-7.552-9.666-11.937-14.05c-3.42-3.421-8.966-3.421-12.386,0
	c-3.422,3.42-3.422,8.965-0.001,12.386c13.556,13.556,22.678,30.608,26.378,49.312c0.826,4.171,4.486,7.061,8.583,7.061
	c0.563,0,1.136-0.055,1.71-0.168c4.745-0.939,7.83-5.547,6.891-10.292c-2.012-10.172-5.395-19.92-10.002-29.05
	c4.441-3.968,9.139-7.635,14.067-10.963c4.727,8.796,8.46,18.157,11.104,27.965c1.052,3.908,4.589,6.481,8.45,6.481
	c0.754,0,1.522-0.098,2.284-0.304c4.671-1.259,7.437-6.066,6.178-10.736c-7.633-28.325-23.231-53.382-45.242-72.796
	c28.963-24.553,52.078-59.083,64.411-98.378c5.813,1.801,11.86,2.709,18.072,2.709c33.806,0,61.31-27.503,61.31-61.31
	C498.319,212.572,475.439,186.994,445.768,182.73z M437.009,287.197c-4.656,0-9.177-0.731-13.515-2.146
	c3.148-13.993,4.756-27.969,4.756-41.646c0-4.83,3.928-8.759,8.759-8.759c4.83,0,8.759,3.928,8.759,8.759
	c0,4.837,3.92,8.759,8.759,8.759s8.759-3.921,8.759-8.759c0-14.489-11.788-26.276-26.276-26.276
	c-14.488,0-26.276,11.787-26.276,26.276c0,14.549-2,29.514-5.945,44.481c-0.003,0.014-0.005,0.028-0.009,0.042
	c-0.008,0.032-0.022,0.061-0.03,0.092c-17.174,64.966-65.974,117.293-121.481,130.3c-1.661,0.335-3.218,1.148-4.458,2.385
	l-22.942,22.877l-23.031-22.967c-1.218-1.215-2.743-2.019-4.371-2.364c-9.151-2.169-18.269-5.448-27.102-9.745
	c-44.063-21.435-80.121-67.605-94.104-120.493c-0.022-0.082-0.054-0.159-0.078-0.239c-3.925-14.929-5.917-29.856-5.917-44.367
	c0-14.489-11.788-26.276-26.276-26.276s-26.276,11.787-26.276,26.276c0,4.837,3.92,8.759,8.759,8.759s8.759-3.921,8.759-8.759
	c0-4.83,3.928-8.759,8.759-8.759s8.759,3.928,8.759,8.759c0,13.677,1.608,27.654,4.756,41.646
	c-4.338,1.415-8.859,2.146-13.515,2.146c-24.148,0-43.793-19.645-43.793-43.793s19.645-43.793,43.793-43.793
	c12.413,0,24.29,5.305,32.589,14.557c8.84,9.854,23.007,13.049,35.251,7.955c35.859-14.923,73.9-22.497,113.17-22.512
	c39.2,0,77.276,7.574,113.17,22.512c3.884,1.616,7.96,2.399,11.999,2.399c8.695,0,17.216-3.625,23.252-10.355
	c8.297-9.25,20.175-14.556,32.588-14.556c24.148,0,43.793,19.645,43.793,43.793S461.157,287.197,437.009,287.197z"/>
<g>
</g>
<g>
</g>
<g>
</g>
<g>
</g>
<g>
</g>
<g>
</g>
<g>
</g>
<g>
</g>
<g>
</g>
<g>
</g>
<g>
</g>
<g>
</g>
<g>
</g>
<g>
</g>
<g>
</g>
</svg>
